<svg id="Layer_1" data-name="Layer 1" xmlns="http://www.w3.org/2000/svg" xmlns:xlink="http://www.w3.org/1999/xlink" viewBox="0 0 90 89.99"><defs><style>.cls-1{fill:#1a1a1a;}.cls-2{fill:url(#linear-gradient);}.cls-3{fill:#c6e5d9;}.cls-4{fill:url(#linear-gradient-2);}</style><linearGradient id="linear-gradient" x1="35.68" y1="63.43" x2="35.68" y2="8.01" gradientUnits="userSpaceOnUse"><stop offset="0.18" stop-color="#cc2774"/><stop offset="1" stop-color="#fff"/></linearGradient><linearGradient id="linear-gradient-2" x1="75.97" y1="91.99" x2="75.97" y2="59.97" gradientUnits="userSpaceOnUse"><stop offset="0" stop-color="#63726c"/><stop offset="1" stop-color="#c6e5d9"/></linearGradient></defs><path class="cls-1" d="M14,14a30.72,30.72,0,0,1,52.4,20.08s0,0,0,0h0c0,.53,0,1.06,0,1.59A30.48,30.48,0,0,1,61.77,52l2.11.76a2.92,2.92,0,0,1,1.88,2.69,2.87,2.87,0,0,1-.84,2l-.39.39L93.6,86.92A4.73,4.73,0,0,1,90.24,95a4.72,4.72,0,0,1-3.33-1.38L57.84,64.54l-.39.39a2.86,2.86,0,0,1-4.7-1.05L52,61.77A30.72,30.72,0,0,1,14,14Zm41.33,2.12a27.73,27.73,0,1,0,0,39.21,27.47,27.47,0,0,0,7.57-14.09c-7.45,11.24-21.74,19-33.34,13.84-11.18-5-15.82-16.41-11-27.16A17.67,17.67,0,0,1,41.8,19a14.39,14.39,0,0,1,7.3,19,11.85,11.85,0,0,1-15.62,6,9.74,9.74,0,0,1-4.94-12.88A8.14,8.14,0,0,1,39.25,27a6.81,6.81,0,0,1,3.43,9,5.73,5.73,0,0,1-7.57,2.9,1.5,1.5,0,0,1,1.22-2.74,2.71,2.71,0,0,0,2.11,0,2.68,2.68,0,0,0,1.5-1.42,3.82,3.82,0,0,0-1.91-5,5.14,5.14,0,0,0-6.75,2.6,6.75,6.75,0,0,0,3.42,8.92,8.85,8.85,0,0,0,11.66-4.47,11.39,11.39,0,0,0-5.78-15.06,14.67,14.67,0,0,0-19.33,7.41c-4.08,9.16-.07,18.91,9.52,23.19,11.66,5.2,26.55-4.81,32.09-17.22q.27-.61.51-1.23A27.5,27.5,0,0,0,55.32,16.11ZM62.64,55.5l-2.65-1a31.68,31.68,0,0,1-2.55,2.9A30.07,30.07,0,0,1,54.54,60l1,2.65ZM91.48,89,62.41,60,60,62.42,89,91.49a1.75,1.75,0,0,0,1.21.5,1.71,1.71,0,0,0,1.24-.5A1.76,1.76,0,0,0,91.48,89Z" transform="translate(-4.99 -5.01)"/><path class="cls-2" d="M16.11,16.11A27.71,27.71,0,0,1,63.37,33.88q-.24.61-.51,1.23C57.32,47.52,42.43,57.53,30.77,52.33c-9.59-4.28-13.6-14-9.52-23.19a14.67,14.67,0,0,1,19.33-7.41,11.39,11.39,0,0,1,5.78,15.06A8.85,8.85,0,0,1,34.7,41.26a6.75,6.75,0,0,1-3.42-8.92A5.14,5.14,0,0,1,38,29.74a3.82,3.82,0,0,1,1.91,5,2.68,2.68,0,0,1-1.5,1.42,2.71,2.71,0,0,1-2.11,0,1.5,1.5,0,0,0-1.22,2.74A5.73,5.73,0,0,0,42.68,36a6.81,6.81,0,0,0-3.43-9,8.14,8.14,0,0,0-10.71,4.12A9.74,9.74,0,0,0,33.48,44,11.85,11.85,0,0,0,49.1,38a14.39,14.39,0,0,0-7.3-19,17.67,17.67,0,0,0-23.29,8.92c-4.78,10.75-.14,22.17,11,27.16,11.6,5.17,25.89-2.6,33.34-13.84a27.47,27.47,0,0,1-7.57,14.09A27.73,27.73,0,0,1,16.11,16.11Z" transform="translate(-4.99 -5.01)"/><path class="cls-3" d="M60,54.54l2.65,1-7.15,7.14-1-2.65a30.07,30.07,0,0,0,2.9-2.55A31.68,31.68,0,0,0,60,54.54Z" transform="translate(-4.99 -5.01)"/><path class="cls-4" d="M62.41,60,91.48,89a1.76,1.76,0,0,1,0,2.45,1.71,1.71,0,0,1-1.24.5,1.75,1.75,0,0,1-1.21-.5L60,62.42Z" transform="translate(-4.99 -5.01)"/></svg>