<svg id="Layer_1" data-name="Layer 1" xmlns="http://www.w3.org/2000/svg" xmlns:xlink="http://www.w3.org/1999/xlink" viewBox="0 0 89.99 90"><defs><style>.cls-1{fill:#1a1a1a;}.cls-2{fill:url(#linear-gradient);}.cls-3{fill:#c6e5d9;}.cls-4{fill:url(#linear-gradient-2);}</style><linearGradient id="linear-gradient" x1="36.56" y1="35.69" x2="91.99" y2="35.69" gradientUnits="userSpaceOnUse"><stop offset="0.18" stop-color="#cc2774"/><stop offset="1" stop-color="#fff"/></linearGradient><linearGradient id="linear-gradient-2" x1="8" y1="75.98" x2="40.02" y2="75.98" gradientUnits="userSpaceOnUse"><stop offset="0" stop-color="#63726c"/><stop offset="1" stop-color="#c6e5d9"/></linearGradient></defs><path class="cls-1" d="M86,14A30.72,30.72,0,0,1,65.92,66.4h0c-.53,0-1.06,0-1.59,0A30.48,30.48,0,0,1,48,61.78l-.76,2.11a2.92,2.92,0,0,1-2.69,1.88,2.87,2.87,0,0,1-2-.84l-.39-.39L13.07,93.61A4.73,4.73,0,0,1,5,90.25a4.72,4.72,0,0,1,1.38-3.33L35.45,57.85l-.39-.39a2.86,2.86,0,0,1,1-4.7L38.22,52A30.72,30.72,0,0,1,86,14ZM83.88,55.33a27.73,27.73,0,1,0-39.21,0A27.47,27.47,0,0,0,58.76,62.9c-11.24-7.45-19-21.74-13.84-33.34,5-11.18,16.41-15.82,27.16-11A17.67,17.67,0,0,1,81,41.81a14.39,14.39,0,0,1-19,7.3,11.85,11.85,0,0,1-6-15.62,9.74,9.74,0,0,1,12.88-4.94A8.14,8.14,0,0,1,73,39.26a6.81,6.81,0,0,1-9,3.43,5.73,5.73,0,0,1-2.9-7.57,1.5,1.5,0,0,1,2.74,1.22,2.71,2.71,0,0,0,0,2.11A2.68,2.68,0,0,0,65.23,40a3.82,3.82,0,0,0,5-1.91,5.14,5.14,0,0,0-2.6-6.75,6.75,6.75,0,0,0-8.92,3.42A8.85,8.85,0,0,0,63.2,46.37a11.39,11.39,0,0,0,15.06-5.78,14.67,14.67,0,0,0-7.41-19.33c-9.16-4.08-18.91-.07-23.19,9.52-5.2,11.66,4.81,26.55,17.22,32.09l1.23.51A27.5,27.5,0,0,0,83.88,55.33ZM44.49,62.65l1-2.65a31.68,31.68,0,0,1-2.9-2.55A30.07,30.07,0,0,1,40,54.55l-2.65,1ZM11,91.49,40,62.42,37.57,60,8.5,89A1.75,1.75,0,0,0,8,90.25a1.71,1.71,0,0,0,.5,1.24A1.76,1.76,0,0,0,11,91.49Z" transform="translate(-5 -5)"/><path class="cls-2" d="M83.88,16.12A27.71,27.71,0,0,1,66.11,63.38l-1.23-.51C52.47,57.33,42.46,42.44,47.66,30.78c4.28-9.59,14-13.6,23.19-9.52a14.67,14.67,0,0,1,7.41,19.33A11.39,11.39,0,0,1,63.2,46.37a8.85,8.85,0,0,1-4.47-11.66,6.75,6.75,0,0,1,8.92-3.42A5.14,5.14,0,0,1,70.25,38a3.82,3.82,0,0,1-5,1.91,2.68,2.68,0,0,1-1.42-1.5,2.71,2.71,0,0,1,0-2.11,1.5,1.5,0,0,0-2.74-1.22A5.73,5.73,0,0,0,64,42.69a6.81,6.81,0,0,0,9-3.43,8.14,8.14,0,0,0-4.12-10.71A9.74,9.74,0,0,0,56,33.49a11.85,11.85,0,0,0,6,15.62,14.39,14.39,0,0,0,19-7.3,17.67,17.67,0,0,0-8.92-23.29c-10.75-4.78-22.17-.14-27.16,11-5.17,11.6,2.6,25.89,13.84,33.34a27.47,27.47,0,0,1-14.09-7.57A27.73,27.73,0,0,1,83.88,16.12Z" transform="translate(-5 -5)"/><path class="cls-3" d="M45.45,60l-1,2.65L37.35,55.5l2.65-1a30.07,30.07,0,0,0,2.55,2.9A31.68,31.68,0,0,0,45.45,60Z" transform="translate(-5 -5)"/><path class="cls-4" d="M40,62.42,11,91.49a1.76,1.76,0,0,1-2.45,0A1.71,1.71,0,0,1,8,90.25,1.75,1.75,0,0,1,8.5,89L37.57,60Z" transform="translate(-5 -5)"/></svg>