<svg id="Layer_1" data-name="Layer 1" xmlns="http://www.w3.org/2000/svg" xmlns:xlink="http://www.w3.org/1999/xlink" viewBox="0 0 32 32"><defs><linearGradient id="linear-gradient" x1="14.74" y1="19.34" x2="27.47" y2="19.34" gradientTransform="matrix(1, 0, 0, -1, -1.76, 31)" gradientUnits="userSpaceOnUse"><stop offset="0" stop-color="#cc2874"/><stop offset="0.11" stop-color="#cd2d78"/><stop offset="0.25" stop-color="#d13d82"/><stop offset="0.4" stop-color="#d75792"/><stop offset="0.56" stop-color="#e07ba9"/><stop offset="0.73" stop-color="#eba9c7"/><stop offset="0.91" stop-color="#f8e0eb"/><stop offset="1" stop-color="#fff"/></linearGradient></defs><path d="M.5,16A15.5,15.5,0,1,1,16,31.5a16,16,0,0,1-9-2.9A15.71,15.71,0,0,1,.5,16Z" fill="#a8d9c1" stroke="#010101" stroke-miterlimit="10"/><path d="M21.35,26.07a16.52,16.52,0,0,0,5.46-5.72A17.45,17.45,0,0,0,28.06,7.1a14.36,14.36,0,0,1,2.12,4,15.35,15.35,0,0,1-1.12,12.31A14.86,14.86,0,0,1,21.42,30a15.08,15.08,0,0,1-7.87.77,15.34,15.34,0,0,1-6.31-2.62C8.76,28.51,15.31,29.91,21.35,26.07Z" fill="#4bba7b"/><path d="M6.81,25.49a1.06,1.06,0,0,0,.77-.32l6.66-6.78.09.09a.66.66,0,0,0,.46.19h.15a.66.66,0,0,0,.47-.43l.17-.49a7,7,0,0,0,3.75,1.09h.38a7,7,0,0,0,4.61-2.09,7.26,7.26,0,0,0,0-10.14,7,7,0,0,0-9.9-.1l-.1.1a7.28,7.28,0,0,0-1,8.87l-.49.18a.64.64,0,0,0-.41.48.65.65,0,0,0,.17.61l.09.1L6,23.61a1.14,1.14,0,0,0,0,1.56A1.06,1.06,0,0,0,6.81,25.49Z" fill="#231f20"/><path d="M14.84,7.09A6.29,6.29,0,0,1,23.73,7l.11.11a6.54,6.54,0,0,1,0,9.15,6.27,6.27,0,0,1-4.08,1.88L19.49,18c-2.86-1.3-5.16-4.77-4-7.49a3.92,3.92,0,0,1,5-2.35l.31.13a3.45,3.45,0,0,1,1.7,4.51,2.61,2.61,0,0,1-1.46,1.4,2.57,2.57,0,0,1-2,0,2.09,2.09,0,0,1-1-2.72,1.64,1.64,0,0,1,.86-.84,1.54,1.54,0,0,1,1.19,0,1.2,1.2,0,0,1,.6,1.57.86.86,0,0,1-1.13.46h0a.68.68,0,0,1-.32-.85.35.35,0,0,0-.59-.38.36.36,0,0,0,0,.09,1.37,1.37,0,0,0,.69,1.74,1.56,1.56,0,0,0,2.06-.8h0a1.9,1.9,0,0,0-.95-2.5,2.16,2.16,0,0,0-1.71-.05,2.26,2.26,0,0,0-1.25,1.2,2.79,2.79,0,0,0,1.38,3.65,3.27,3.27,0,0,0,2.53.07,3.36,3.36,0,0,0,1.88-1.75,4.14,4.14,0,0,0-2.1-5.43,4.58,4.58,0,0,0-6.09,2.21l-.15.36c-1.19,2.71.6,6,3.18,7.78a6.28,6.28,0,0,1-3.24-1.76A6.56,6.56,0,0,1,14.84,7.09Z" fill="url(#linear-gradient)"/><path d="M13.77,16.05a6.3,6.3,0,0,0,.58.68,7.73,7.73,0,0,0,.67.6l-.22.61-1.64-1.66Z" fill="#4bba7b"/><path d="M6.53,24.1l6.71-6.78.56.57L7.09,24.67a.39.39,0,0,1-.55,0h0a.36.36,0,0,1-.12-.28A.45.45,0,0,1,6.53,24.1Z" fill="#4bba7b"/></svg>