<svg width="157.7849609375px" height="141.2099609375px" xmlns="http://www.w3.org/2000/svg" viewBox="171.10751953125 4.39501953125 157.7849609375 141.2099609375" style="background: rgba(0, 0, 0, 0);" preserveAspectRatio="xMidYMid"><defs><filter id="editing-extrusion" x="-100%" y="-100%" width="300%" height="300%"><feFlood result="color1" flood-color="#292929"></feFlood><feConvolveMatrix order="8,8" divisor="1" kernelMatrix="1 0 0 0 0 0 0 0 0 1 0 0 0 0 0 0 0 0 1 0 0 0 0 0 0 0 0 1 0 0 0 0 0 0 0 0 1 0 0 0 0 0 0 0 0 1 0 0 0 0 0 0 0 0 1 0 0 0 0 0 0 0 0 1" in="SourceAlpha" result="extrude"></feConvolveMatrix><feComposite in="color1" in2="extrude" result="comp-extrude" operator="in"></feComposite><feOffset dx="4" dy="4" in="comp-extrude" result="offset-extrude"></feOffset><feMerge><feMergeNode in="offset-extrude"></feMergeNode><feMergeNode in="SourceGraphic"></feMergeNode></feMerge></filter></defs><g filter="url(#editing-extrusion)"><g transform="translate(199.96499741077423, 98.72000122070312)"><path d="M47.69-10.38L47.69-10.38L47.69-10.38Q50.81-20.50 54.94-47.38L54.94-47.38L54.94-47.38Q58.88-47.38 59.06-44.94L59.06-44.94L59.06-44.94Q59.13-44.19 59.16-43.88L59.16-43.88L59.16-43.88Q59.19-43.56 58.94-41.72L58.94-41.72L58.94-41.72Q58.69-39.88 58.22-36.56L58.22-36.56L58.22-36.56Q57.75-33.25 57.06-28.88L57.06-28.88L57.06-28.88Q56.38-24.50 55.50-19.75L55.50-19.75L55.50-19.75Q53.38-8.56 51.13-0.88L51.13-0.88L51.13-0.88Q48.88 0.69 47.63-0.38L47.63-0.38L47.63-0.38Q47.06-0.94 46.63-1.91L46.63-1.91L46.63-1.91Q46.19-2.88 45.63-4.13L45.63-4.13L45.63-4.13Q44.81-5.19 42.63-9.75L42.63-9.75L42.63-9.75Q40.44-14.31 39.09-17L39.09-17L39.09-17Q37.75-19.69 36.50-22L36.50-22L36.50-22Q33.63-27.19 31.69-28.06L31.69-28.06L31.69-28.06Q29.44-24.56 23.69-8.88L23.69-8.88L23.69-8.88Q22.69-6.13 21.88-3.78L21.88-3.78L21.88-3.78Q21.06-1.44 20.50 0L20.50 0L16.63-0.19L1-36.31L1-36.31Q0.88-36.63 0.88-36.94L0.88-36.94L0.88-36.94Q0.88-37.25 1.09-37.56L1.09-37.56L1.09-37.56Q1.31-37.88 1.88-38.13L1.88-38.13L1.88-38.13Q2.94-38.50 4-38.50L4-38.50L4-38.50Q5.06-38.50 5.53-38.09L5.53-38.09L5.53-38.09Q6-37.69 6.28-37.06L6.28-37.06L6.28-37.06Q6.56-36.44 6.75-35.69L6.75-35.69L6.75-35.69Q6.94-34.94 7.47-33.75L7.47-33.75L7.47-33.75Q8-32.56 9.03-30.25L9.03-30.25L9.03-30.25Q10.06-27.94 11.25-25.38L11.25-25.38L11.25-25.38Q12.44-22.81 13.63-20.28L13.63-20.28L13.63-20.28Q14.81-17.75 15.88-15.63L15.88-15.63L15.88-15.63Q18.13-10.94 18.69-10.38L18.69-10.38L18.69-10.38Q25.94-28.25 27.63-31.59L27.63-31.59L27.63-31.59Q29.31-34.94 29.75-35.69L29.75-35.69L29.75-35.69Q30.44-36.75 30.81-36.75L30.81-36.75L30.81-36.75Q33.50-36.75 39.88-24.75L39.88-24.75L39.88-24.75Q41.63-21.56 43.13-18.63L43.13-18.63L43.13-18.63Q46.81-11.50 47.69-10.38ZM61.13-5.47L61.13-5.47L61.13-5.47Q61.13-6.63 62.09-7.53L62.09-7.53L62.09-7.53Q63.06-8.44 63.59-8.78L63.59-8.78L63.59-8.78Q64.13-9.13 64.31-9.31L64.31-9.31L64.31-9.31Q64.63-3.63 72-3.63L72-3.63L72-3.63Q77.81-3.63 85.56-7.25L85.56-7.25L85.56-7.25Q91.06-9.75 92.94-12.38L92.94-12.38L92.94-12.38Q93.56-13.19 93.56-13.72L93.56-13.72L93.56-13.72Q93.56-14.25 93.38-14.56L93.38-14.56L67.44-20.38L67.44-20.38Q66.31-20.63 65.25-21.44L65.25-21.44L65.25-21.44Q63.31-22.81 63.31-23.94L63.31-23.94L63.31-23.94Q63.31-28.25 69.44-31.75L69.44-31.75L69.44-31.75Q76.19-35.56 87.50-37.50L87.50-37.50L87.50-37.50Q90.06-37.94 91.31-38L91.31-38L91.31-38Q91.69-37.88 92.47-37.78L92.47-37.78L92.47-37.78Q93.25-37.69 94.06-37.50L94.06-37.50L94.06-37.50Q96-37.06 95.69-35.88L95.69-35.88L95.69-35.88Q95.69-33.75 87.56-32.50L87.56-32.50L87.56-32.50Q77.06-30.94 74.47-29.88L74.47-29.88L74.47-29.88Q71.88-28.81 70.72-27.69L70.72-27.69L70.72-27.69Q69.56-26.56 69.50-25L69.50-25L69.50-25Q69.50-24.69 70.94-24.31L70.94-24.31L70.94-24.31Q72.38-23.94 74.38-23.41L74.38-23.41L74.38-23.41Q76.38-22.88 79.56-22L79.56-22L79.56-22Q87.31-19.88 98.56-16.63L98.56-16.63L98.56-16.63Q99.19-15.25 99.19-14.06L99.19-14.06L99.19-14.06Q99.19-10.75 95.31-7.69L95.31-7.69L95.31-7.69Q90.94-4.25 83.19-1.88L83.19-1.88L83.19-1.88Q76.75 0.06 72.94 0.06L72.94 0.06L72.94 0.06Q69.75 0.06 66.88-1.06L66.88-1.06L66.88-1.06Q64-2.19 62.56-3.25L62.56-3.25L62.56-3.25Q61.13-4.31 61.13-5.47Z" fill="#cc2774"></path></g></g><style>text {
  font-size: 64px;
  font-family: Arial Black;
  dominant-baseline: central;
  text-anchor: middle;
}</style></svg>